<?xml version="1.0" encoding="utf-8"?>
<!-- Generator: Adobe Illustrator 22.1.0, SVG Export Plug-In . SVG Version: 6.00 Build 0)  -->
<svg version="1.1" id="Layer_1" xmlns="http://www.w3.org/2000/svg" xmlns:xlink="http://www.w3.org/1999/xlink" x="0px" y="0px"
	 viewBox="0 0 32 32" style="enable-background:new 0 0 32 32;" xml:space="preserve">
<path d="M20.4,9.1c0-1.4,1.1-2.5,2.5-2.5c1.4,0,2.5,1.1,2.5,2.5s-1.1,2.5-2.5,2.5C21.5,11.6,20.4,10.5,20.4,9.1z M17.1,30.2l3.8-3.8
	c0.5-0.5,0.5-1.3,0-1.8c-0.5-0.5-1.3-0.5-1.8,0l-3.8,3.8c-0.7,0.7-1.6,1.1-2.6,1.1s-1.9-0.4-2.6-1.1L3.7,22c-1.5-1.5-1.5-3.8,0-5.3
	l14-14.1h9.2c1.4,0,2.5,1.1,2.5,2.5v9.2l-5.8,5.8c-0.5,0.5-0.5,1.3,0,1.8c0.5,0.5,1.3,0.5,1.8,0l6.2-6.2c0.2-0.2,0.4-0.5,0.4-0.9
	V5.2c0-2.7-2.2-5-5-5h-9.7c-0.3,0-0.6,0.1-0.9,0.4L1.9,15c-2.4,2.4-2.4,6.4,0,8.8l6.4,6.4c1.2,1.2,2.7,1.8,4.4,1.8
	S15.9,31.4,17.1,30.2z"/>
</svg>
