<?xml version="1.0" encoding="utf-8"?>
<!-- Generator: Adobe Illustrator 22.1.0, SVG Export Plug-In . SVG Version: 6.00 Build 0)  -->
<svg version="1.1" id="Layer_1" xmlns="http://www.w3.org/2000/svg" xmlns:xlink="http://www.w3.org/1999/xlink" x="0px" y="0px"
	 viewBox="0 0 32 32" style="enable-background:new 0 0 32 32;" xml:space="preserve">
<g>
	<path d="M29.1,19.4c-0.7,0-1.3,0.6-1.3,1.3v6.8c0,1-0.8,1.8-1.8,1.8H4.4c-1,0-1.8-0.8-1.8-1.8V7.5c0-1,0.8-1.8,1.8-1.8h6.8
		c0.7,0,1.3-0.6,1.3-1.3c0-0.7-0.6-1.3-1.3-1.3H4.4C2,3.1,0,5.1,0,7.5v20.1c0,2.4,2,4.4,4.4,4.4H26c2.4,0,4.4-2,4.4-4.4v-6.8
		C30.4,20,29.8,19.4,29.1,19.4z"/>
	<path d="M30.8,2.2l-0.9-0.9c-1.5-1.5-4.1-1.5-5.6,0L10.5,15c-0.2,0.2-0.3,0.3-0.3,0.6l-1.8,6.5c-0.1,0.4,0,0.9,0.3,1.2
		c0.2,0.2,0.6,0.4,0.9,0.4c0.1,0,0.2,0,0.3,0l6.5-1.8c0.2-0.1,0.4-0.2,0.6-0.3L30.8,7.8C32.4,6.2,32.4,3.7,30.8,2.2z M13.8,20
		l-2.3,0.6l0.6-2.3L13.8,20z M26.8,8.2L16.2,18.8l-2.9-2.9L23.8,5.3L26.8,8.2z M29,6l-0.5,0.5l-2.9-2.9l0.5-0.5c0.5-0.5,1.5-0.5,2,0
		L29,4C29.6,4.5,29.6,5.4,29,6z"/>
</g>
</svg>
